<svg xmlns="http://www.w3.org/2000/svg" viewBox="0 0 64 64">
  <rect width="64" height="64" rx="14" fill="#fff8e5"/>
  <path fill="#315d4b" d="m9 26 19-15a6.5 6.5 0 0 1 8 0l19 15a5 5 0 0 1 2 4v21a7 7 0 0 1-7 7H14a7 7 0 0 1-7-7V30a5 5 0 0 1 2-4Z"/>
  <path d="M18 39a16 16 0 0 1 25-13M47 33a16 16 0 0 1-1 15M39 53a16 16 0 0 1-16-2" fill="none" stroke="#d9783f" stroke-linecap="round" stroke-width="5"/>
  <circle cx="18" cy="46" r="3.5" fill="#d9783f"/>
  <circle cx="47" cy="27" r="3.5" fill="#d9783f"/>
  <circle cx="45" cy="51" r="3.5" fill="#d9783f"/>
  <circle cx="32" cy="41" r="5.5" fill="#fff8e5"/>
</svg>
